<?xml version="1.0" encoding="UTF-8" standalone="no"?>
<svg
   xmlns:dc="http://purl.org/dc/elements/1.1/"
   xmlns:cc="http://creativecommons.org/ns#"
   xmlns:rdf="http://www.w3.org/1999/02/22-rdf-syntax-ns#"
   xmlns:svg="http://www.w3.org/2000/svg"
   xmlns="http://www.w3.org/2000/svg"
   id="svg8"
   version="1.1"
   viewBox="0 0 210 297"
   height="297mm"
   width="210mm">
  <defs
     id="defs2" />
  <metadata
     id="metadata5">
    <rdf:RDF>
      <cc:Work
         rdf:about="">
        <dc:format>image/svg+xml</dc:format>
        <dc:type
           rdf:resource="http://purl.org/dc/dcmitype/StillImage" />
        <dc:title></dc:title>
      </cc:Work>
    </rdf:RDF>
  </metadata>
  <g
     id="layer1">
    <g
       transform="translate(-168.38839,-53.634832)"
       id="g4566" />
    <rect
       y="0.51428574"
       x="0.79700464"
       height="295.68869"
       width="209.6122"
       id="rect4492"
       style="opacity:1;fill:#000000;fill-opacity:0.6796875;fill-rule:nonzero;stroke:none;stroke-width:15;stroke-linecap:round;stroke-linejoin:round;stroke-miterlimit:4;stroke-dasharray:none;stroke-opacity:0.61157024" />
    <g
       transform="matrix(0.45206825,0,0,0.45036972,-8.7710389,35.869275)"
       id="g4830">
      <g
         id="g4764">
        <g
           id="g4762" />
      </g>
      <g
         id="g4770">
        <g
           id="g4768">
          <path
             style="fill:#000005;fill-opacity:0.5078125"
             d="M 330.439,100.249 C 327.951,92.395 325.266,84.847 322.38,77.659 302.285,27.579 274.658,0 244.588,0 c -30.07,0 -57.697,27.579 -77.793,77.658 -2.893,7.209 -5.586,14.779 -8.08,22.658 C 150.721,98.223 142.882,96.463 135.24,95.064 82.166,85.347 43.851896,85.334401 26.627429,119.79414 20.094896,128.4937 8.8849814,191.78042 77.755458,252.78977 80.925416,255.31808 55.482809,280.885 52.242,285.34 20.605,329.052 12.015,367.132 28.056,392.566 c 11.75,18.63 35.313,28.257 67.941,28.257 11.917,0 25.044,-1.285 39.244,-3.884 7.641,-1.399 15.48,-3.159 23.475,-5.252 2.494,7.879 5.187,15.448 8.08,22.658 20.096,50.078 47.724,77.658 77.793,77.658 30.071,0 57.697,-27.579 77.793,-77.658 2.893,-7.209 5.586,-14.779 8.08,-22.658 7.995,2.093 15.834,3.854 23.476,5.252 14.201,2.599 27.325,3.884 39.244,3.884 32.623,0 56.192,-9.629 67.941,-28.257 16.041,-25.435 7.451,-63.515 -24.186,-107.226 -7.055,-9.749 -15.094,-19.552 -23.979,-29.312 92.75348,-95.70584 61.16298,-190.137915 -82.519,-155.779 z m 1.528,84.97 c -9.68,-6.914 -19.702,-13.65 -30.023,-20.16 -13.06,-8.236 -26.241,-15.884 -39.413,-22.903 19.371,-8.948 38.515,-16.359 57.063,-22.075 5.427,20.101 9.586,42.02 12.373,65.138 z M 181.638,83.613 c 17.245,-42.972 40.19,-67.619 62.95,-67.619 22.76,0 45.705,24.647 62.95,67.619 2.686,6.693 5.191,13.721 7.519,21.029 -22.48,6.939 -46.252,16.462 -70.483,28.333 -23.99,-11.742 -47.748,-21.281 -70.472,-28.275 2.332,-7.329 4.843,-14.376 7.536,-21.087 z m -12.044,36.427 c 18.433,5.679 37.606,13.112 57.056,22.105 -13.109,6.989 -26.29,14.635 -39.417,22.915 -10.321,6.51 -20.343,13.247 -30.024,20.161 2.788,-23.136 6.953,-45.067 12.385,-65.181 z M 45.391019,116.48867 c 21.436149,-14.43584 29.88545,-14.87902 86.969981,-5.69267 21.856,4.874 14.412,2.938 21.856,4.874 -6.812,25.191 -11.695,53.073 -14.466,82.505 -19.31,14.881 -35.44277,29.90792 -50.949771,45.66692 C 60.309614,218.3847 53.582307,203.92423 45.680826,191.17577 39.866157,180.70024 27.093834,130.05108 45.391019,116.48867 Z M 138.106,292.125 c -14.438,-11.747 -27.792,-23.854 -39.845,-36.149 12.002,-12.233 25.36,-24.348 39.847,-36.126 -0.684,11.876 -1.036,23.946 -1.036,36.149 -0.002,12.195 0.35,24.259 1.034,36.126 z m -5.746,109.08 c -45.549,8.338 -78.633,2.078 -90.776,-17.172 -12.141,-19.252 -3.535,-51.806 23.613,-89.317 6.513,-8.999 13.908,-18.056 22.075,-27.086 15.58,15.842 33.217,31.365 52.478,46.207 2.771,29.428 7.654,57.306 14.465,82.494 -7.443,1.936 -14.742,3.572 -21.855,4.874 z m 24.85,-74.415 c 9.68,6.911 19.702,13.643 30.023,20.151 13.064,8.239 26.25,15.888 39.427,22.911 -19.454,8.994 -38.63,16.429 -57.065,22.109 -5.433,-20.111 -9.596,-42.041 -12.385,-65.171 z m 150.328,101.597 c -17.245,42.974 -40.188,67.619 -62.95,67.619 -22.761,0 -45.705,-24.647 -62.95,-67.619 -2.692,-6.711 -5.203,-13.757 -7.536,-21.086 22.728,-6.996 46.492,-16.538 70.487,-28.283 23.995,11.745 47.758,21.287 70.486,28.283 -2.333,7.328 -4.844,14.375 -7.537,21.086 z m 12.044,-36.427 c -18.436,-5.68 -37.611,-13.114 -57.065,-22.109 13.177,-7.021 26.363,-14.672 39.427,-22.911 10.358,-6.533 20.378,-13.268 30.023,-20.156 -2.789,23.134 -6.952,45.065 -12.385,65.176 z m -26.17,-58.547 c -16.191,10.212 -32.553,19.49 -48.824,27.743 -16.27,-8.252 -32.633,-17.531 -48.824,-27.743 -14.2,-8.957 -27.812,-18.334 -40.71,-28.022 -1.313,-16.07 -1.991,-32.596 -1.991,-49.392 0,-16.794 0.677,-33.316 1.99,-49.385 12.891,-9.682 26.505,-19.069 40.71,-28.029 16.196,-10.215 32.549,-19.482 48.833,-27.739 16.268,8.251 32.628,17.529 48.814,27.739 14.205,8.959 27.819,18.346 40.71,28.028 1.313,16.069 1.99,32.591 1.99,49.385 0,16.779 -0.676,33.286 -1.986,49.34 -12.86,9.685 -26.479,19.098 -40.712,28.075 z m 130.566,-38.698 c 27.149,37.51 35.756,70.065 23.613,89.317 -12.143,19.252 -45.229,25.51 -90.776,17.172 -7.113,-1.302 -14.413,-2.938 -21.857,-4.874 6.811,-25.189 11.694,-53.069 14.465,-82.499 19.475,-15.007 37.119,-30.559 52.504,-46.175 8.159,9.022 15.545,18.07 22.051,27.059 z M 351.069,219.85 c 14.484,11.776 27.841,23.888 39.841,36.12 -11.926,12.121 -25.289,24.249 -39.836,36.097 0.68,-11.849 1.032,-23.893 1.032,-36.067 -10e-4,-12.203 -0.353,-24.274 -1.037,-36.15 z m 50.831,24.504 c -15.51,-15.761 -33.161,-31.297 -52.474,-46.181 -2.771,-29.428 -7.653,-57.306 -14.464,-82.495 34.146,-8.911 79.65543,-16.558286 106.27471,10.06629 13.82468,21.66534 11.10374,62.39946 -39.33671,118.60971 z"
             id="path4766" />
        </g>
      </g>
      <g
         id="g4772" />
      <g
         id="g4774" />
      <g
         id="g4776" />
      <g
         id="g4778" />
      <g
         id="g4780" />
      <g
         id="g4782" />
      <g
         id="g4784" />
      <g
         id="g4786" />
      <g
         id="g4788" />
      <g
         id="g4790" />
      <g
         id="g4792" />
      <g
         id="g4794" />
      <g
         id="g4796" />
      <g
         id="g4798" />
      <g
         id="g4800" />
    </g>
    <ellipse
       ry="5.3276105"
       rx="5.2209859"
       cy="186.76756"
       cx="197.11864"
       id="path4620"
       style="fill:#0d46ff;fill-opacity:1;fill-rule:nonzero;stroke:#0d46ff;stroke-width:14.84913921;stroke-linecap:round;stroke-linejoin:round;stroke-miterlimit:4;stroke-dasharray:none;stroke-dashoffset:0;stroke-opacity:1;paint-order:stroke markers fill" />
    <g
       style="fill:#0d8fff;fill-opacity:1;stroke:#0d31ff;stroke-opacity:1"
       id="g4579"
       transform="matrix(0.97998633,0,0,1,-5.5191794,-18.356773)">
      <path
         style="fill:#0d020e;fill-opacity:0.796875;stroke:#000000;stroke-width:21;stroke-linecap:butt;stroke-linejoin:miter;stroke-miterlimit:4;stroke-dasharray:none;stroke-opacity:0.78925622"
         d="m 89.484554,127.25293 -0.422257,44.12579 -0.522181,44.1258"
         id="path4570" />
      <path
         style="fill:#0d020e;fill-opacity:0.796875;stroke:#000000;stroke-width:21;stroke-linecap:butt;stroke-linejoin:miter;stroke-miterlimit:4;stroke-dasharray:none;stroke-opacity:0.78925622"
         d="m 131.83366,126.40842 v 44.33692 44.33692"
         id="path4572" />
      <path
         style="opacity:1;fill:#0d020e;fill-opacity:0.796875;stroke:#000000;stroke-width:21;stroke-linecap:butt;stroke-linejoin:miter;stroke-miterlimit:4;stroke-dasharray:none;stroke-opacity:0.78925622"
         d="m 131.83366,170.74534 c -30.48081,0.3198 -44.271325,0.63338 -44.271325,0.63338"
         id="path4574" />
    </g>
  </g>
</svg>
